<svg width="17" height="17" viewBox="0 0 17 17" fill="none" xmlns="http://www.w3.org/2000/svg">
  <circle cx="8.5" cy="8.5" r="8" stroke="#C5D5EE" />
  <path d="M8.64857 4.7865C8.65613 4.47672 8.76946 4.23117 8.98857 4.04983C9.20768 3.8685 9.47968 3.77783 9.80457 3.77783C10.069 3.77783 10.273 3.84205 10.4166 3.9705C10.5677 4.09139 10.6432 4.26139 10.6432 4.4805C10.6432 4.78272 10.5299 5.03206 10.3032 5.2285C10.0766 5.42494 9.79701 5.52317 9.46457 5.52317C9.19257 5.52317 8.98479 5.45894 8.84124 5.3305C8.69768 5.1945 8.63346 5.01317 8.64857 4.7865ZM8.2179 7.6425C8.27079 7.46872 8.29724 7.35539 8.29724 7.3025C8.29724 7.15139 8.22924 7.07583 8.09324 7.07583C7.95724 7.07583 7.83257 7.14761 7.71924 7.29117C7.6059 7.42717 7.48879 7.65383 7.3679 7.97117L7.14124 8.54917H6.9259L7.24324 7.68783C7.52279 6.90961 8.0479 6.5205 8.81857 6.5205C9.16613 6.5205 9.41924 6.60739 9.5779 6.78117C9.73657 6.94739 9.8159 7.1665 9.8159 7.4385C9.8159 7.65761 9.77435 7.8805 9.69124 8.10717L8.50124 11.5752C8.4559 11.7112 8.43324 11.8207 8.43324 11.9038C8.43324 12.0625 8.50879 12.1418 8.6599 12.1418C8.77324 12.1418 8.88657 12.0776 8.9999 11.9492C9.12079 11.8207 9.24546 11.5865 9.3739 11.2465L9.5779 10.7025H9.79324L9.49857 11.5298C9.23413 12.3081 8.72413 12.6972 7.96857 12.6972C7.28101 12.6972 6.93724 12.3836 6.93724 11.7565C6.93724 11.5072 6.9939 11.2201 7.10724 10.8952L8.2179 7.6425Z" fill="#B2C2DC" />
</svg>